<?xml version="1.0" encoding="utf-8"?>
<!-- Generator: Adobe Illustrator 23.0.0, SVG Export Plug-In . SVG Version: 6.00 Build 0)  -->
<svg version="1.1" id="Camada_1" xmlns="http://www.w3.org/2000/svg" xmlns:xlink="http://www.w3.org/1999/xlink" x="0px" y="0px"
	 viewBox="0 0 282 308" style="enable-background:new 0 0 282 308;" xml:space="preserve">
<style type="text/css">
	.st0{fill:#5DE2A6;}
	.st1{fill-rule:evenodd;clip-rule:evenodd;fill:#166B56;}
	.st2{fill:none;}
</style>
<g>
	<path class="st0" d="M20,0h242c8.8,0,16,7.2,16,16v268c0,8.8-7.2,16-16,16H20c-8.8,0-16-7.2-16-16V16C4,7.2,11.2,0,20,0z"/>
	<path class="st1" d="M278,250.9l-274-65V16C4,7.2,11.2,0,20,0h242c8.8,0,16,7.2,16,16V250.9z"/>
	<path class="st2" d="M71,39h140v140H71V39z"/>
</g>
<path class="st0" d="M77.1,166.7h31.2v-10.1c0,0,2.3-4.3,6.1,0c3.8,4.3,9.1,6.1,15.5-0.5s2-13.2-1.5-15.4c-3.5-2.1-0.3-9.3,10.1-5.7
	s-1.3,13,13.9,13.1s5.6-15.1,12.4-17.6l4.1-2c0,0,2-3,7.1,2c5.1,5.1,13.9-1.8,13.9-1.8s5.8-9.5-2.5-14.6s3.5-19.1,8.4-13.7
	c4.8,5.5,11-10.3,5.5-14.8c0,0-1.8-1.3-6.3-2.6c-4.5-1.4-3.3-6.3-3.3-6.3s-0.2-4.3,1.4-4.4c1.6-0.1,6.8,1,6.4-6.8s-5.1-7.8-9.3-5.9
	c0,0-5.7-6.9-5.2-9.1c0.4-2.2,3-4.6-4.2-8.4s-9.1-4.6-11.5,0c0,0-10.8,0.5-11.9,0.6c-1.1,0.1,0.4-4.1-10.1-3.3
	c-10.6,0.8-28.6,7.4-25.8,33.5s29.7,32.7,46.1,14.7c0,0-28.6,8.6-31.7-9.6s4.1-25.9,21.3-25.6s24.3,12.9,21.8,39.5
	s-34,25.3-40.1,22.1c-6.1-3.1-42.8-19.5-57.5,20.9C81.4,134.9,77.6,145.9,77.1,166.7z"/>
</svg>
