<?xml version="1.0" encoding="utf-8"?>
<!-- Generator: Adobe Illustrator 23.0.0, SVG Export Plug-In . SVG Version: 6.00 Build 0)  -->
<svg version="1.1" id="Camada_1" xmlns="http://www.w3.org/2000/svg" xmlns:xlink="http://www.w3.org/1999/xlink" x="0px" y="0px"
	 viewBox="0 0 282 308" style="enable-background:new 0 0 282 308;" xml:space="preserve">
<style type="text/css">
	.st0{fill:#5DE2A6;}
	.st1{fill-rule:evenodd;clip-rule:evenodd;fill:#166B56;}
</style>
<g>
	<path class="st0" d="M20,0h242c8.8,0,16,7.2,16,16v268c0,8.8-7.2,16-16,16H20c-8.8,0-16-7.2-16-16V16C4,7.2,11.2,0,20,0z"/>
	<path class="st1" d="M278,250.9l-274-65V16C4,7.2,11.2,0,20,0h242c8.8,0,16,7.2,16,16V250.9z"/>
</g>
<g>
	<path class="st0" d="M192.1,52.3h-4.3V39.4h-14.1v12.9h-55.2V39.4h-14.1v12.9h-4.9c-9.5,0-17.2,7.7-17.2,17.2v92.6
		c0,9.5,7.7,17.2,17.2,17.2h92.6c9.5,0,17.2-7.7,17.2-17.2V69.6C209.4,60,201.7,52.3,192.1,52.3z M194.7,165H97V87.4h97.7V165z"/>
	<g>
		<path class="st0" d="M144.8,155.7l-21.7-21c-6.1-5.9-6.8-15.4-1.1-21.7c6.2-6.8,17-7.1,23.6-0.8l0.6,0.6c6.6-6.3,17.3-6,23.5,0.9
			c5.7,6.2,4.9,15.8-1.2,21.6l-21,20.3C146.8,156.5,145.6,156.5,144.8,155.7z"/>
	</g>
</g>
</svg>
