<?xml version="1.0" encoding="utf-8"?>
<!-- Generator: Adobe Illustrator 23.0.0, SVG Export Plug-In . SVG Version: 6.00 Build 0)  -->
<svg version="1.1" id="Camada_1" xmlns="http://www.w3.org/2000/svg" xmlns:xlink="http://www.w3.org/1999/xlink" x="0px" y="0px"
	 viewBox="0 0 282 308" style="enable-background:new 0 0 282 308;" xml:space="preserve">
<style type="text/css">
	.st0{fill:#5DE2A6;}
	.st1{fill-rule:evenodd;clip-rule:evenodd;fill:#166B56;}
	.st2{fill:#042B09;}
	.st3{font-family:'Mulish-Bold';}
	.st4{font-size:34.8498px;}
	.st5{font-family:'Mulish-Light';}
	.st6{font-size:28.7056px;}
</style>
<g>
	<path class="st0" d="M20,0h242c8.8,0,16,7.2,16,16v268c0,8.8-7.2,16-16,16H20c-8.8,0-16-7.2-16-16V16C4,7.2,11.2,0,20,0z"/>
	<path class="st1" d="M278,250.9l-274-65V16C4,7.2,11.2,0,20,0h242c8.8,0,16,7.2,16,16V250.9z"/>
	<path class="st0" d="M141,44c-35.9,0-65,29.1-65,65s29.1,65,65,65s65-29.1,65-65S176.9,44,141,44z M128,138.3V79.8l39,29.3
		L128,138.3z"/>
</g>
<text transform="matrix(1 0 0 1 17.2314 246.9725)" class="st2 st3 st4">Arquivo</text>
<g>
	<text transform="matrix(1 0 0 1 17.2324 281.6548)" class="st2 st5 st6">do Alquimista</text>
</g>
</svg>
