<svg xmlns="http://www.w3.org/2000/svg" width="282" height="308" fill="none" viewBox="0 0 282 308">
  <g filter="url(#a)">
    <rect width="274" height="300" x="4" fill="#5DE2A6" rx="16"/>
    <path fill="#166B56" fill-rule="evenodd" d="M278 250.86 4 185.875V16C4 7.163 11.163 0 20 0h242c8.837 0 16 7.163 16 16v234.86Z" clip-rule="evenodd"/>
    <path fill="#000" d="M25.44 246.264c-1.264 0-2.408-.336-3.432-1.008-1.008-.672-1.816-1.648-2.424-2.928-.592-1.296-.888-2.872-.888-4.728 0-1.856.296-3.424.888-4.704.608-1.296 1.416-2.28 2.424-2.952 1.024-.672 2.168-1.008 3.432-1.008a6.01 6.01 0 0 1 2.808.672c.864.448 1.6 1.104 2.208 1.968.624.848 1.064 1.888 1.32 3.12l-3.624.936c-.144-1.008-.464-1.76-.96-2.256-.48-.512-1.024-.768-1.632-.768a2.16 2.16 0 0 0-1.392.504c-.4.336-.72.872-.96 1.608-.24.72-.36 1.68-.36 2.88 0 1.184.12 2.144.36 2.88.24.736.56 1.272.96 1.608.416.336.88.504 1.392.504.608 0 1.152-.248 1.632-.744.496-.512.816-1.272.96-2.28l3.624.936c-.256 1.216-.696 2.256-1.32 3.12-.608.864-1.344 1.52-2.208 1.968a6.01 6.01 0 0 1-2.808.672Zm14.175-.024c-1.232 0-2.336-.28-3.312-.84a6.555 6.555 0 0 1-2.328-2.304c-.56-.976-.84-2.072-.84-3.288 0-1.2.28-2.28.84-3.24a6.363 6.363 0 0 1 2.328-2.28c.976-.576 2.072-.864 3.288-.864 1.232 0 2.328.288 3.288.864a6.179 6.179 0 0 1 2.304 2.28c.576.96.864 2.048.864 3.264 0 1.2-.288 2.288-.864 3.264a6.362 6.362 0 0 1-2.304 2.304c-.96.56-2.048.84-3.264.84Zm-.024-3.264c.528 0 .992-.136 1.392-.408.4-.272.712-.64.936-1.104.224-.48.336-1.024.336-1.632 0-.608-.112-1.144-.336-1.608a2.718 2.718 0 0 0-.936-1.128 2.416 2.416 0 0 0-1.392-.408c-.512 0-.976.136-1.392.408-.4.272-.712.648-.936 1.128-.224.464-.336 1-.336 1.608 0 .608.112 1.152.336 1.632.224.464.536.832.936 1.104.416.272.88.408 1.392.408ZM48.197 246v-12.384h3.888v1.68c.96-1.248 2.184-1.872 3.672-1.872.8 0 1.504.184 2.112.552a3.743 3.743 0 0 1 1.464 1.488c.352.624.528 1.352.528 2.184V246h-3.888v-7.224c0-.704-.192-1.264-.576-1.68-.368-.416-.864-.624-1.488-.624-.352 0-.68.064-.984.192a2.321 2.321 0 0 0-.84.552V246h-3.888Zm22.527.24c-1.728 0-3.032-.384-3.912-1.152-.88-.784-1.32-1.936-1.32-3.456v-5.016h-3.624v-3h3.624v-3.432l3.888-.792v4.224h4.68v3h-4.68v4.248c0 .784.152 1.336.456 1.656.32.304.872.456 1.656.456.352 0 .728-.024 1.128-.072.4-.048.904-.152 1.512-.312v3.144c-.48.128-1.04.24-1.68.336-.624.112-1.2.168-1.728.168Zm10.239-.048c-.832 0-1.576-.16-2.232-.48a3.8 3.8 0 0 1-1.512-1.32c-.352-.56-.528-1.208-.528-1.944 0-.768.191-1.416.575-1.944.384-.544.936-.952 1.656-1.224.72-.288 1.585-.432 2.593-.432.448 0 .903.048 1.367.144a8.57 8.57 0 0 1 1.512.48v-1.056c0-.608-.2-1.056-.6-1.344-.4-.304-1.016-.456-1.847-.456-.465 0-.984.08-1.56.24-.56.144-1.2.368-1.92.672l-1.392-2.76c1.04-.464 2.023-.8 2.951-1.008a12.031 12.031 0 0 1 2.785-.336c1.711 0 3.04.408 3.983 1.224.96.816 1.44 1.96 1.44 3.432V246h-3.84v-1.176c-.544.48-1.088.832-1.632 1.056a5.002 5.002 0 0 1-1.8.312Zm-.697-3.816c0 .4.168.712.504.936.337.208.8.312 1.392.312.416 0 .808-.056 1.176-.168a4.08 4.08 0 0 0 1.056-.528v-1.464a8.063 8.063 0 0 0-1.08-.216 5.892 5.892 0 0 0-1.055-.096c-.624 0-1.112.104-1.465.312-.352.208-.528.512-.528.912Zm19.24 3.864c-1.729 0-3.033-.384-3.913-1.152-.88-.784-1.32-1.936-1.32-3.456v-5.016H90.65v-3h3.624v-3.432l3.888-.792v4.224h4.68v3h-4.68v4.248c0 .784.152 1.336.456 1.656.32.304.872.456 1.656.456.352 0 .728-.024 1.128-.072.4-.048.904-.152 1.512-.312v3.144c-.48.128-1.04.24-1.68.336a9.83 9.83 0 0 1-1.728.168Zm12.398 0c-1.248 0-2.376-.28-3.384-.84a6.693 6.693 0 0 1-2.376-2.304c-.592-.976-.888-2.064-.888-3.264 0-1.216.28-2.304.84-3.264.56-.96 1.32-1.72 2.28-2.28.96-.576 2.04-.864 3.24-.864 1.248 0 2.344.28 3.288.84a5.79 5.79 0 0 1 2.232 2.328c.544.976.816 2.104.816 3.384v.84h-8.88c.128.464.336.872.624 1.224s.64.624 1.056.816c.416.192.864.288 1.344.288.56 0 1.064-.104 1.512-.312a3.019 3.019 0 0 0 1.152-.888l2.496 2.232c-.784.752-1.608 1.288-2.472 1.608-.848.304-1.808.456-2.88.456Zm-2.808-7.632h5.256a3.178 3.178 0 0 0-.528-1.176c-.24-.32-.536-.56-.888-.72a2.647 2.647 0 0 0-1.2-.264c-.432 0-.832.088-1.2.264-.352.16-.648.4-.888.72-.24.32-.424.712-.552 1.176ZM24.144 278.24c-.848 0-1.608-.152-2.28-.456-.656-.304-1.168-.72-1.536-1.248-.368-.544-.552-1.168-.552-1.872 0-.704.184-1.32.552-1.848.384-.528.912-.936 1.584-1.224.688-.288 1.48-.432 2.376-.432.704 0 1.36.072 1.968.216a5.706 5.706 0 0 1 1.728.672v-1.344c0-1.04-.264-1.824-.792-2.352-.528-.528-1.312-.792-2.352-.792-.592 0-1.184.088-1.776.264-.592.16-1.256.448-1.992.864l-.72-1.32c.848-.464 1.656-.792 2.424-.984a9.374 9.374 0 0 1 2.28-.288c1.488 0 2.632.376 3.432 1.128.816.752 1.224 1.832 1.224 3.24V278h-1.728v-1.344c-.544.544-1.136.944-1.776 1.2a5.388 5.388 0 0 1-2.064.384Zm-2.688-3.624c0 .688.28 1.24.84 1.656.56.416 1.296.624 2.208.624.688 0 1.312-.104 1.872-.312a4.828 4.828 0 0 0 1.608-1.056v-2.256a5.252 5.252 0 0 0-1.584-.648 8.298 8.298 0 0 0-1.848-.192c-.928 0-1.68.2-2.256.6-.56.4-.84.928-.84 1.584Zm32.597 8.64a8.782 8.782 0 0 1-2.376-.336 9.065 9.065 0 0 1-2.184-.888l.744-1.344c.72.368 1.376.64 1.968.816a6.205 6.205 0 0 0 1.776.264c2.176 0 3.264-1 3.264-3v-2.352c-.448.56-.992.992-1.632 1.296a5.088 5.088 0 0 1-2.112.432 4.929 4.929 0 0 1-2.736-.792 5.892 5.892 0 0 1-1.944-2.16c-.48-.912-.72-1.928-.72-3.048s.24-2.128.72-3.024c.496-.912 1.16-1.632 1.992-2.16a4.978 4.978 0 0 1 2.784-.816c.736 0 1.416.144 2.04.432.624.272 1.168.68 1.632 1.224v-1.512h1.728v12.456c0 1.456-.424 2.568-1.272 3.336-.848.784-2.072 1.176-3.672 1.176Zm-.12-6.624c.688 0 1.32-.136 1.896-.408a3.91 3.91 0 0 0 1.416-1.176v-5.784a3.854 3.854 0 0 0-1.464-1.152 4.076 4.076 0 0 0-1.848-.432c-.784 0-1.488.192-2.112.576a4.24 4.24 0 0 0-1.464 1.584c-.352.672-.528 1.44-.528 2.304 0 .848.176 1.616.528 2.304a4.438 4.438 0 0 0 1.464 1.608c.624.384 1.328.576 2.112.576Zm14.727 1.608c-1.12 0-2.128-.264-3.024-.792a6.075 6.075 0 0 1-2.136-2.184c-.512-.928-.768-1.968-.768-3.12 0-1.152.248-2.184.744-3.096a5.7 5.7 0 0 1 2.016-2.16c.864-.528 1.824-.792 2.88-.792 1.104 0 2.088.264 2.952.792a5.507 5.507 0 0 1 2.04 2.112c.496.88.744 1.88.744 3v.528h-9.672c.064.8.288 1.52.672 2.16.384.624.888 1.12 1.512 1.488a4.31 4.31 0 0 0 2.112.528c.688 0 1.328-.128 1.92-.384a4.257 4.257 0 0 0 1.512-1.104l1.224 1.08a6.447 6.447 0 0 1-2.136 1.464c-.8.32-1.664.48-2.592.48Zm-4.176-7.008h7.896a4.17 4.17 0 0 0-.72-1.872 3.863 3.863 0 0 0-1.416-1.272c-.56-.32-1.192-.48-1.896-.48-.656 0-1.256.152-1.8.456a3.99 3.99 0 0 0-1.368 1.272c-.352.544-.584 1.176-.696 1.896ZM77.939 278v-11.712h1.752v1.896c.895-1.392 2.135-2.088 3.72-2.088.847 0 1.584.184 2.207.552.64.352 1.136.856 1.489 1.512.368.64.552 1.392.552 2.256V278h-1.753v-7.08c0-1.04-.288-1.856-.864-2.448-.56-.608-1.32-.912-2.28-.912-.64 0-1.224.152-1.752.456-.528.304-.968.752-1.32 1.344V278h-1.75Zm21.134.24c-1.312 0-2.32-.28-3.024-.84-.688-.576-1.032-1.408-1.032-2.496v-7.176H91.01v-1.44h4.008v-3.216l1.752-.408v3.624h5.4v1.44h-5.4v6.888c0 .736.2 1.264.6 1.584.4.32.976.48 1.728.48.464 0 .944-.048 1.44-.144.496-.096 1.04-.256 1.632-.48v1.584a9.91 9.91 0 0 1-1.56.432 7.168 7.168 0 0 1-1.536.168Zm12.759 0c-1.12 0-2.128-.264-3.024-.792a6.075 6.075 0 0 1-2.136-2.184c-.512-.928-.768-1.968-.768-3.12 0-1.152.248-2.184.744-3.096a5.7 5.7 0 0 1 2.016-2.16c.864-.528 1.824-.792 2.88-.792 1.104 0 2.088.264 2.952.792a5.507 5.507 0 0 1 2.04 2.112c.496.88.744 1.88.744 3v.528h-9.672c.064.8.288 1.52.672 2.16.384.624.888 1.12 1.512 1.488a4.31 4.31 0 0 0 2.112.528c.688 0 1.328-.128 1.92-.384a4.257 4.257 0 0 0 1.512-1.104l1.224 1.08a6.447 6.447 0 0 1-2.136 1.464c-.8.32-1.664.48-2.592.48Zm-4.176-7.008h7.896a4.17 4.17 0 0 0-.72-1.872 3.863 3.863 0 0 0-1.416-1.272c-.56-.32-1.192-.48-1.896-.48-.656 0-1.256.152-1.8.456a3.99 3.99 0 0 0-1.368 1.272c-.352.544-.584 1.176-.696 1.896Z"/>
    <path fill="#5DE2A6" d="M141 46c-32.002 0-58 23.813-58 53.125 0 29.313 25.998 53.125 58 53.125h3.412V171C177.574 156.375 199 127.25 199 99.125 199 69.812 173.002 46 141 46Z"/>
  </g>
  <defs>
    <filter id="a" width="282" height="308" x="0" y="0" color-interpolation-filters="sRGB" filterUnits="userSpaceOnUse">
      <feFlood flood-opacity="0" result="BackgroundImageFix"/>
      <feColorMatrix in="SourceAlpha" result="hardAlpha" values="0 0 0 0 0 0 0 0 0 0 0 0 0 0 0 0 0 0 127 0"/>
      <feOffset dy="4"/>
      <feGaussianBlur stdDeviation="2"/>
      <feComposite in2="hardAlpha" operator="out"/>
      <feColorMatrix values="0 0 0 0 0 0 0 0 0 0 0 0 0 0 0 0 0 0 0.25 0"/>
      <feBlend in2="BackgroundImageFix" result="effect1_dropShadow_203_240"/>
      <feBlend in="SourceGraphic" in2="effect1_dropShadow_203_240" result="shape"/>
    </filter>
  </defs>
</svg>
