<?xml version="1.0" encoding="utf-8"?>
<!-- Generator: Adobe Illustrator 23.0.0, SVG Export Plug-In . SVG Version: 6.00 Build 0)  -->
<svg version="1.1" id="Camada_1" xmlns="http://www.w3.org/2000/svg" xmlns:xlink="http://www.w3.org/1999/xlink" x="0px" y="0px"
	 viewBox="0 0 279 73" style="enable-background:new 0 0 279 73;" xml:space="preserve">
<style type="text/css">
	.st0{fill:#5DE2A6;}
	.st1{fill-rule:evenodd;clip-rule:evenodd;fill:#166B56;}
	.st2{fill:#042B09;}
</style>
<g>
	<path class="st0" d="M0,57V16C0,7.2,7.2,0,16,0h247c8.8,0,16,7.2,16,16v41c0,8.8-7.2,16-16,16H16C7.2,73,0,65.8,0,57z"/>
	<path class="st1" d="M125.7,0c1.3,2.9,1.3,6.5-0.4,10.2L97.3,71c-0.3,0.7-0.7,1.4-1.1,2H16C7.2,73,0,65.8,0,57V16C0,7.2,7.2,0,16,0
		H125.7z"/>
	<path class="st0" d="M53.5,10C38.9,10,27,21.9,27,36.5S38.9,63,53.5,63S80,51.1,80,36.5S68.1,10,53.5,10z M48.2,48.4V24.6
		l15.9,11.9L48.2,48.4z"/>
</g>
<g>
	<path class="st2" d="M144.2,45.7l9.2-20.2h3.1l9.3,20.2H162l-2.5-5.7l1.5,1h-12.1l1.5-1l-2.5,5.7H144.2z M154.9,29.4l-4,9.6
		l-0.7-0.9h9.6l-0.6,0.9l-4.1-9.6H154.9z"/>
	<path class="st2" d="M167.7,45.7V34.9c0-0.6,0-1.2,0-1.9c0-0.6-0.1-1.2-0.2-1.8h3.5l0.4,4h-0.6c0.2-1,0.5-1.8,1-2.4
		c0.4-0.6,1-1.1,1.7-1.4c0.7-0.3,1.4-0.5,2.1-0.5c0.3,0,0.6,0,0.8,0c0.2,0,0.4,0.1,0.6,0.2l0,3.2c-0.4-0.2-0.7-0.2-0.9-0.3
		c-0.3,0-0.6-0.1-1-0.1c-0.8,0-1.5,0.2-2.1,0.5c-0.6,0.3-1,0.8-1.3,1.4c-0.3,0.6-0.4,1.3-0.4,2.1v7.7H167.7z"/>
	<path class="st2" d="M189.1,51.9v-9.2h0.3c-0.3,1-0.9,1.8-1.9,2.4c-0.9,0.6-2,0.9-3.2,0.9c-1.3,0-2.4-0.3-3.3-0.9s-1.7-1.5-2.2-2.6
		s-0.8-2.5-0.8-4c0-1.6,0.3-2.9,0.8-4c0.5-1.1,1.3-2,2.2-2.6c1-0.6,2.1-0.9,3.3-0.9c1.2,0,2.3,0.3,3.2,0.9c0.9,0.6,1.5,1.4,1.9,2.4
		h-0.3l0.3-3h3.4c-0.1,0.6-0.1,1.2-0.2,1.8c0,0.6-0.1,1.2-0.1,1.8v17.1H189.1z M185.4,43.2c1.1,0,2-0.4,2.7-1.2c0.7-0.8,1-2,1-3.6
		c0-1.6-0.3-2.8-1-3.6c-0.7-0.8-1.6-1.2-2.7-1.2c-1.1,0-2,0.4-2.7,1.2c-0.7,0.8-1,2-1,3.6c0,1.6,0.3,2.8,1,3.6
		C183.3,42.8,184.2,43.2,185.4,43.2z"/>
	<path class="st2" d="M201.8,45.9c-1.8,0-3.1-0.5-4-1.5c-0.9-1-1.3-2.5-1.3-4.5v-8.8h3.6V40c0,1.1,0.2,1.9,0.7,2.4s1.1,0.8,2,0.8
		c1,0,1.8-0.3,2.5-1c0.6-0.7,1-1.6,1-2.7v-8.2h3.6v14.5h-3.5v-3h0.4c-0.4,1-1.1,1.8-1.9,2.4S202.9,45.9,201.8,45.9z"/>
	<path class="st2" d="M213.5,28.4v-3.5h4v3.5H213.5z M213.7,45.7V31.2h3.6v14.5H213.7z"/>
	<path class="st2" d="M225.4,45.7l-6.3-14.5h3.8l4.5,11.3h-0.9l4.7-11.3h3.6l-6.3,14.5H225.4z"/>
	<path class="st2" d="M243,45.9c-1.5,0-2.8-0.3-3.9-0.9c-1.1-0.6-1.9-1.5-2.5-2.6c-0.6-1.1-0.9-2.5-0.9-4c0-1.5,0.3-2.9,0.9-4
		c0.6-1.1,1.5-2,2.5-2.6c1.1-0.6,2.4-0.9,3.9-0.9c1.5,0,2.8,0.3,3.9,0.9c1.1,0.6,2,1.5,2.6,2.6c0.6,1.1,0.9,2.5,0.9,4
		c0,1.6-0.3,2.9-0.9,4c-0.6,1.1-1.5,2-2.6,2.6C245.8,45.6,244.5,45.9,243,45.9z M243,43.2c1.1,0,2-0.4,2.7-1.2c0.7-0.8,1-2,1-3.6
		c0-1.6-0.3-2.8-1-3.6s-1.6-1.2-2.7-1.2c-1.1,0-2,0.4-2.7,1.2c-0.7,0.8-1,2-1,3.6c0,1.6,0.3,2.8,1,3.6C241,42.8,241.9,43.2,243,43.2
		z"/>
</g>
</svg>
