<?xml version="1.0" encoding="utf-8"?>
<!-- Generator: Adobe Illustrator 23.0.0, SVG Export Plug-In . SVG Version: 6.00 Build 0)  -->
<svg version="1.1" id="Camada_1" xmlns="http://www.w3.org/2000/svg" xmlns:xlink="http://www.w3.org/1999/xlink" x="0px" y="0px"
	 viewBox="0 0 279 73.3" style="enable-background:new 0 0 279 73.3;" xml:space="preserve">
<style type="text/css">
	.st0{fill:#5DE2A6;}
	.st1{fill-rule:evenodd;clip-rule:evenodd;fill:#166B56;}
	.st2{fill:#042B09;}
</style>
<g>
	<path class="st0" d="M0,57.3v-41c0-8.8,7.2-16,16-16h247c8.8,0,16,7.2,16,16v41c0,8.8-7.2,16-16,16H16C7.2,73.3,0,66.1,0,57.3z"/>
	<path class="st1" d="M125.7,0.3c1.3,2.9,1.3,6.5-0.4,10.2l-28,60.8c-0.3,0.7-0.7,1.4-1.1,2H16c-8.8,0-16-7.2-16-16v-41
		c0-8.8,7.2-16,16-16C16,0.3,125.7,0.3,125.7,0.3z"/>
</g>
<g>
	<polygon class="st0" points="59.3,8.2 65.1,44.3 86.1,35.3 	"/>
	<polygon class="st0" points="30.6,38.6 62.4,47 56.7,64.9 	"/>
	<polygon class="st0" points="65.1,47.6 84.1,39.5 59.9,64.1 	"/>
	<g>
		<path class="st0" d="M51.2,22.3c-1.7-0.4-3,0.6-3.5,2c-0.5,1.5,0.3,2.6,1.8,3.5c1.5-0.1,2.8-0.8,3.3-2.2
			C53.3,24.2,53,22.7,51.2,22.3z"/>
		<path class="st0" d="M48.4,29c-1.9,0.1-3.1,1-3.6,2.3c-0.5,1.4,0.1,2.9,1.9,3.3c1.7,0.4,3.2-0.3,3.7-1.7
			C51.1,31.2,50.2,30,48.4,29z"/>
		<path class="st0" d="M56.3,8.2l-27,26.9l33.1,9.2L56.3,8.2z M54.9,25.7c-0.5,1.3-1.7,2.5-3.8,3l0,0c1.5,1.2,2.2,2.7,1.5,4.4
			c-0.9,2.4-3.7,3.4-6.3,2.7c-2.9-0.7-4-2.8-3.4-4.8c0.6-1.8,2.1-2.8,4.1-3.1v-0.1c-1.4-1.2-1.6-2.6-1.2-3.9
			c0.8-2.5,3.4-3.8,6.2-3.2C54.9,21.4,55.7,23.7,54.9,25.7z"/>
	</g>
</g>
<g>
	<path class="st2" d="M149.2,46c-1.7,0-3.3-0.2-4.7-0.6c-1.4-0.4-2.7-1-3.7-1.8l1.2-3c0.7,0.5,1.4,0.9,2.1,1.2
		c0.7,0.3,1.5,0.6,2.4,0.8c0.8,0.2,1.7,0.3,2.7,0.3c1.6,0,2.7-0.3,3.4-0.8c0.7-0.5,1.1-1.2,1.1-2c0-0.7-0.2-1.3-0.7-1.7
		c-0.5-0.4-1.3-0.7-2.6-1l-3.4-0.7c-1.9-0.4-3.4-1.1-4.4-2c-1-0.9-1.4-2.2-1.4-3.8c0-1.3,0.4-2.5,1.1-3.5c0.7-1,1.7-1.7,2.9-2.3
		c1.3-0.5,2.7-0.8,4.4-0.8c1.5,0,2.9,0.2,4.2,0.6c1.3,0.4,2.4,1,3.2,1.8l-1.2,2.9c-0.9-0.7-1.8-1.3-2.8-1.6c-1-0.4-2.2-0.5-3.4-0.5
		c-1.4,0-2.5,0.3-3.3,0.8c-0.8,0.6-1.2,1.3-1.2,2.3c0,0.7,0.2,1.3,0.7,1.8c0.5,0.4,1.3,0.8,2.5,1l3.4,0.7c2,0.4,3.5,1.1,4.4,2
		s1.4,2.1,1.4,3.7c0,1.3-0.3,2.4-1,3.3c-0.7,1-1.6,1.7-2.9,2.2C152.4,45.7,150.9,46,149.2,46z"/>
	<path class="st2" d="M160.7,27.6V24h4.2v3.7H160.7z M160.9,45.7V30.5h3.8v15.2H160.9z"/>
	<path class="st2" d="M174.2,46c-1.3,0-2.5-0.2-3.6-0.5s-2-0.7-2.7-1.3l1.1-2.5c0.8,0.5,1.6,0.9,2.5,1.2c0.9,0.3,1.9,0.4,2.8,0.4
		c1,0,1.7-0.2,2.2-0.5s0.7-0.8,0.7-1.4c0-0.5-0.2-0.8-0.5-1.1s-0.8-0.5-1.5-0.6l-3-0.6c-1.3-0.3-2.3-0.8-2.9-1.4
		c-0.7-0.7-1-1.6-1-2.7c0-0.9,0.3-1.8,0.8-2.5c0.5-0.7,1.2-1.3,2.2-1.7c1-0.4,2.1-0.6,3.4-0.6c1.1,0,2.2,0.2,3.2,0.5
		c1,0.3,1.8,0.8,2.5,1.4l-1.1,2.4c-0.6-0.5-1.3-0.9-2.1-1.2c-0.8-0.3-1.6-0.4-2.3-0.4c-1,0-1.8,0.2-2.3,0.6
		c-0.5,0.4-0.7,0.8-0.7,1.4c0,0.4,0.1,0.8,0.4,1.1c0.3,0.3,0.7,0.5,1.4,0.6l3,0.6c1.3,0.3,2.4,0.7,3.1,1.4c0.7,0.7,1,1.5,1,2.7
		c0,1-0.3,1.9-0.8,2.6c-0.5,0.7-1.3,1.3-2.3,1.7C176.6,45.8,175.5,46,174.2,46z"/>
	<path class="st2" d="M190.2,46c-1.8,0-3.2-0.5-4.1-1.4c-0.9-0.9-1.4-2.4-1.4-4.2v-7h-2.9v-2.8h2.9v-3.9l3.8-1v4.8h4.1v2.8h-4.1v6.8
		c0,1,0.2,1.8,0.6,2.2c0.4,0.4,1,0.6,1.7,0.6c0.4,0,0.7,0,1-0.1c0.3-0.1,0.5-0.1,0.8-0.2v3c-0.3,0.1-0.7,0.2-1.1,0.3
		C190.9,45.9,190.5,46,190.2,46z"/>
	<path class="st2" d="M202.2,46c-2.5,0-4.5-0.7-6-2.1c-1.4-1.4-2.2-3.3-2.2-5.8c0-1.6,0.3-3,0.9-4.1c0.6-1.2,1.5-2.1,2.6-2.8
		c1.1-0.7,2.4-1,3.9-1c1.5,0,2.7,0.3,3.7,0.9c1,0.6,1.7,1.5,2.2,2.6s0.8,2.4,0.8,3.9v1h-11.1v-2h8.4l-0.5,0.4c0-1.4-0.3-2.5-0.9-3.2
		c-0.6-0.7-1.4-1.1-2.6-1.1c-1.2,0-2.2,0.4-2.9,1.3c-0.7,0.9-1,2.1-1,3.7v0.4c0,1.6,0.4,2.9,1.2,3.7c0.8,0.8,2,1.2,3.4,1.2
		c0.9,0,1.7-0.1,2.4-0.3s1.5-0.6,2.1-1.1l1.1,2.5c-0.7,0.6-1.6,1-2.6,1.4S203.4,46,202.2,46z"/>
	<path class="st2" d="M211.4,45.7V34.3c0-0.6,0-1.3-0.1-1.9c0-0.6-0.1-1.3-0.2-1.9h3.6l0.3,3h-0.4c0.4-1,1.1-1.9,1.9-2.4
		c0.9-0.6,1.9-0.9,3.1-0.9s2.2,0.3,3,0.9c0.8,0.6,1.3,1.5,1.7,2.7h-0.5c0.4-1.1,1.1-1.9,2.1-2.6c1-0.6,2.1-0.9,3.3-0.9
		c1.7,0,3,0.5,3.8,1.5c0.8,1,1.3,2.6,1.3,4.7v9.3h-3.8v-9.1c0-1.2-0.2-2.1-0.6-2.6c-0.4-0.5-1-0.8-1.9-0.8c-1,0-1.9,0.4-2.5,1.1
		c-0.6,0.7-0.9,1.7-0.9,3v8.5H221v-9.1c0-1.2-0.2-2.1-0.6-2.6c-0.4-0.5-1-0.8-1.9-0.8c-1,0-1.9,0.4-2.4,1.1c-0.6,0.7-0.9,1.7-0.9,3
		v8.5H211.4z"/>
	<path class="st2" d="M244.3,46c-1.3,0-2.5-0.3-3.5-0.9c-1-0.6-1.8-1.5-2.3-2.7c-0.6-1.2-0.8-2.6-0.8-4.2c0-1.6,0.3-3,0.8-4.2
		c0.6-1.2,1.3-2.1,2.3-2.7c1-0.6,2.2-0.9,3.5-0.9c1.3,0,2.4,0.3,3.4,0.9c1,0.6,1.6,1.5,1.9,2.5h-0.3l0.3-3.2h3.6
		c-0.1,0.6-0.1,1.3-0.2,1.9c-0.1,0.6-0.1,1.3-0.1,1.9v11.4h-3.7l0-3.1h0.4c-0.3,1-1,1.9-2,2.5S245.5,46,244.3,46z M245.3,43.1
		c1.2,0,2.1-0.4,2.9-1.2c0.7-0.8,1.1-2.1,1.1-3.8c0-1.7-0.4-2.9-1.1-3.8c-0.7-0.8-1.7-1.2-2.9-1.2c-1.2,0-2.1,0.4-2.9,1.2
		c-0.7,0.8-1.1,2.1-1.1,3.8c0,1.7,0.4,2.9,1.1,3.8C243.2,42.7,244.1,43.1,245.3,43.1z"/>
</g>
</svg>
