<?xml version="1.0" encoding="utf-8"?>
<!-- Generator: Adobe Illustrator 23.0.0, SVG Export Plug-In . SVG Version: 6.00 Build 0)  -->
<svg version="1.1" id="Camada_1" xmlns="http://www.w3.org/2000/svg" xmlns:xlink="http://www.w3.org/1999/xlink" x="0px" y="0px"
	 viewBox="0 0 279 73.3" style="enable-background:new 0 0 279 73.3;" xml:space="preserve">
<style type="text/css">
	.st0{fill:#5DE2A6;}
	.st1{fill-rule:evenodd;clip-rule:evenodd;fill:#166B56;}
	.st2{enable-background:new    ;}
	.st3{fill:#042B09;}
</style>
<g>
	<path class="st0" d="M0,57.3v-41c0-8.8,7.2-16,16-16h247c8.8,0,16,7.2,16,16v41c0,8.8-7.2,16-16,16H16C7.2,73.3,0,66.1,0,57.3z"/>
	<path class="st1" d="M125.7,0.3c1.3,2.9,1.3,6.5-0.4,10.2l-28,60.8c-0.3,0.7-0.7,1.4-1.1,2H16c-8.8,0-16-7.2-16-16v-41
		c0-8.8,7.2-16,16-16C16,0.3,125.7,0.3,125.7,0.3z"/>
</g>
<g>
	<path class="st0" d="M72.7,13.4H71V8.2h-5.7v5.2H42.8V8.2h-5.7v5.2h-2c-3.8,0-7,3.1-7,7v37.5c0,3.8,3.1,7,7,7h37.5c3.8,0,7-3.1,7-7
		V20.4C79.7,16.5,76.6,13.4,72.7,13.4z M73.7,59.1H34.1V27.6h39.6V59.1z"/>
	<g>
		<path class="st0" d="M53.5,55.3l-8.8-8.5c-2.5-2.4-2.8-6.2-0.4-8.8c2.5-2.8,6.9-2.9,9.6-0.3l0.2,0.2c2.7-2.6,7-2.4,9.5,0.4
			c2.3,2.5,2,6.4-0.5,8.8l-8.5,8.2C54.3,55.6,53.8,55.6,53.5,55.3z"/>
	</g>
</g>
<g class="st2">
	<path class="st3" d="M139.5,45.7l9.6-21.2h3.2l9.7,21.2h-3.9l-2.6-6l1.6,1.1h-12.7l1.6-1.1l-2.6,6H139.5z M150.7,28.6l-4.2,10
		l-0.8-0.9h10.1l-0.6,0.9l-4.3-10H150.7z"/>
	<path class="st3" d="M171,52.4c-1.4,0-2.7-0.2-3.8-0.4c-1.1-0.3-2.1-0.8-3-1.4l0.8-2.7c0.6,0.4,1.2,0.7,1.8,0.9s1.3,0.4,1.9,0.5
		c0.7,0.1,1.3,0.2,2,0.2c1.4,0,2.4-0.3,3.1-1c0.7-0.7,1-1.7,1-3v-3.6h0.3c-0.3,1-1,1.9-1.9,2.5c-1,0.6-2.1,0.9-3.4,0.9
		c-1.4,0-2.5-0.3-3.6-0.9s-1.8-1.5-2.4-2.6c-0.6-1.1-0.8-2.5-0.8-4c0-1.5,0.3-2.9,0.8-4s1.3-2,2.4-2.6c1-0.6,2.2-0.9,3.6-0.9
		c1.3,0,2.4,0.3,3.4,0.9c1,0.6,1.6,1.4,1.9,2.5l-0.3-0.2l0.3-2.9h3.6c-0.1,0.6-0.1,1.3-0.2,1.9c0,0.6-0.1,1.3-0.1,1.9v10.8
		c0,2.4-0.6,4.2-1.9,5.5S173.4,52.4,171,52.4z M170.9,42.4c1.2,0,2.2-0.4,2.9-1.2c0.7-0.8,1.1-2,1.1-3.5c0-1.5-0.4-2.7-1.1-3.5
		c-0.7-0.8-1.7-1.2-2.9-1.2c-1.2,0-2.2,0.4-2.9,1.2c-0.7,0.8-1.1,2-1.1,3.5c0,1.5,0.4,2.7,1.1,3.5C168.7,42,169.7,42.4,170.9,42.4z"
		/>
	<path class="st3" d="M190,46c-2.5,0-4.5-0.7-6-2.1s-2.2-3.3-2.2-5.8c0-1.6,0.3-3,0.9-4.1c0.6-1.2,1.5-2.1,2.6-2.8
		c1.1-0.7,2.4-1,3.9-1c1.5,0,2.7,0.3,3.7,0.9c1,0.6,1.7,1.5,2.2,2.6c0.5,1.1,0.8,2.4,0.8,3.9v1h-11.1v-2h8.4l-0.5,0.4
		c0-1.4-0.3-2.5-0.9-3.2s-1.4-1.1-2.6-1.1c-1.2,0-2.2,0.4-2.9,1.3c-0.7,0.9-1,2.1-1,3.7v0.4c0,1.6,0.4,2.9,1.2,3.7
		c0.8,0.8,2,1.2,3.4,1.2c0.9,0,1.7-0.1,2.4-0.3c0.8-0.2,1.5-0.6,2.1-1.1l1.1,2.5c-0.7,0.6-1.6,1-2.6,1.4S191.1,46,190,46z"/>
	<path class="st3" d="M199.1,45.7V34.3c0-0.6,0-1.3-0.1-1.9c0-0.6-0.1-1.3-0.2-1.9h3.6l0.3,3h-0.4c0.5-1.1,1.2-1.9,2.1-2.4
		c0.9-0.6,2-0.9,3.3-0.9c1.8,0,3.1,0.5,4,1.5c0.9,1,1.4,2.6,1.4,4.7v9.3h-3.8v-9.1c0-1.2-0.2-2.1-0.7-2.6c-0.5-0.5-1.2-0.8-2.1-0.8
		c-1.2,0-2.1,0.4-2.8,1.1c-0.7,0.7-1,1.7-1,2.9v8.6H199.1z"/>
	<path class="st3" d="M223.1,46c-1.3,0-2.5-0.3-3.5-0.9s-1.8-1.5-2.4-2.7c-0.6-1.2-0.8-2.6-0.8-4.2c0-1.6,0.3-3.1,0.8-4.2
		c0.6-1.2,1.3-2.1,2.4-2.7s2.2-0.9,3.5-0.9c1.3,0,2.4,0.3,3.4,0.9c1,0.6,1.6,1.4,1.9,2.5H228v-10h3.8v22.1h-3.7v-3.2h0.4
		c-0.3,1.1-1,1.9-1.9,2.6S224.4,46,223.1,46z M224.2,43.1c1.2,0,2.1-0.4,2.9-1.2c0.7-0.8,1.1-2.1,1.1-3.8c0-1.7-0.4-2.9-1.1-3.8
		c-0.7-0.8-1.7-1.2-2.9-1.2c-1.2,0-2.1,0.4-2.9,1.2s-1.1,2.1-1.1,3.8c0,1.7,0.4,2.9,1.1,3.8S223,43.1,224.2,43.1z"/>
	<path class="st3" d="M241.7,46c-1.3,0-2.5-0.3-3.5-0.9s-1.8-1.5-2.3-2.7c-0.6-1.2-0.8-2.6-0.8-4.2c0-1.6,0.3-3.1,0.8-4.2
		c0.6-1.2,1.3-2.1,2.3-2.7s2.2-0.9,3.5-0.9c1.3,0,2.4,0.3,3.4,0.9c1,0.6,1.6,1.5,1.9,2.5h-0.3l0.3-3.2h3.6c-0.1,0.6-0.1,1.3-0.2,1.9
		c0,0.6-0.1,1.3-0.1,1.9v11.4h-3.7l0-3.1h0.4c-0.3,1-1,1.9-2,2.5C244.1,45.7,243,46,241.7,46z M242.8,43.1c1.2,0,2.1-0.4,2.9-1.2
		c0.7-0.8,1.1-2.1,1.1-3.8c0-1.7-0.4-2.9-1.1-3.8c-0.7-0.8-1.7-1.2-2.9-1.2c-1.2,0-2.1,0.4-2.9,1.2c-0.7,0.8-1.1,2.1-1.1,3.8
		c0,1.7,0.4,2.9,1.1,3.8C240.6,42.7,241.6,43.1,242.8,43.1z"/>
</g>
</svg>
