<?xml version="1.0" encoding="utf-8"?>
<!-- Generator: Adobe Illustrator 23.0.0, SVG Export Plug-In . SVG Version: 6.00 Build 0)  -->
<svg version="1.1" id="Camada_1" xmlns="http://www.w3.org/2000/svg" xmlns:xlink="http://www.w3.org/1999/xlink" x="0px" y="0px"
	 viewBox="0 0 279 73" style="enable-background:new 0 0 279 73;" xml:space="preserve">
<style type="text/css">
	.st0{fill:#5DE2A6;}
	.st1{fill-rule:evenodd;clip-rule:evenodd;fill:#166B56;}
	.st2{fill:#042B09;}
</style>
<g>
	<path class="st0" d="M0,57V16C0,7.2,7.2,0,16,0h247c8.8,0,16,7.2,16,16v41c0,8.8-7.2,16-16,16H16C7.2,73,0,65.8,0,57z"/>
	<path class="st1" d="M125.7,0c1.3,2.9,1.3,6.5-0.4,10.2L97.3,71c-0.3,0.7-0.7,1.4-1.1,2H16C7.2,73,0,65.8,0,57V16C0,7.2,7.2,0,16,0
		H125.7z"/>
	<path class="st0" d="M51.5,7C36.3,7,24,18.3,24,32.2s12.3,25.2,27.5,25.2h1.6v8.9C68.8,59.3,79,45.5,79,32.2C79,18.3,66.7,7,51.5,7
		z"/>
</g>
<g>
	<path class="st2" d="M155.9,45.9c-2.1,0-3.9-0.4-5.4-1.3s-2.7-2.1-3.5-3.6c-0.8-1.6-1.2-3.4-1.2-5.5c0-2.1,0.4-4,1.2-5.5
		s2-2.8,3.5-3.6s3.3-1.3,5.4-1.3c1.4,0,2.7,0.2,3.8,0.6s2.1,1,2.9,1.8l-1.2,2.9c-0.9-0.7-1.8-1.2-2.6-1.6c-0.8-0.3-1.8-0.5-2.9-0.5
		c-2,0-3.6,0.6-4.7,1.9c-1.1,1.2-1.6,3-1.6,5.3c0,2.3,0.5,4,1.6,5.3c1.1,1.2,2.6,1.9,4.7,1.9c1.1,0,2-0.2,2.9-0.5
		c0.8-0.3,1.7-0.8,2.6-1.6l1.2,2.9c-0.8,0.8-1.8,1.4-2.9,1.8S157.3,45.9,155.9,45.9z"/>
	<path class="st2" d="M171.4,45.9c-1.5,0-2.8-0.3-3.9-0.9c-1.1-0.6-1.9-1.5-2.5-2.6c-0.6-1.1-0.9-2.5-0.9-4c0-1.5,0.3-2.9,0.9-4
		c0.6-1.1,1.5-2,2.5-2.6c1.1-0.6,2.4-0.9,3.9-0.9c1.5,0,2.8,0.3,3.9,0.9c1.1,0.6,2,1.5,2.6,2.6c0.6,1.1,0.9,2.5,0.9,4
		c0,1.6-0.3,2.9-0.9,4c-0.6,1.1-1.5,2-2.6,2.6C174.2,45.6,172.9,45.9,171.4,45.9z M171.4,43.2c1.1,0,2-0.4,2.7-1.2
		c0.7-0.8,1-2,1-3.6c0-1.6-0.3-2.8-1-3.6s-1.6-1.2-2.7-1.2c-1.1,0-2,0.4-2.7,1.2c-0.7,0.8-1,2-1,3.6c0,1.6,0.3,2.8,1,3.6
		C169.4,42.8,170.3,43.2,171.4,43.2z"/>
	<path class="st2" d="M181.8,45.7V34.8c0-0.6,0-1.2-0.1-1.8c0-0.6-0.1-1.2-0.2-1.8h3.5l0.3,2.9H185c0.5-1,1.1-1.8,2-2.3
		c0.9-0.5,1.9-0.8,3.1-0.8c1.7,0,3,0.5,3.8,1.4c0.9,1,1.3,2.4,1.3,4.5v8.9h-3.6V37c0-1.2-0.2-2-0.7-2.5c-0.4-0.5-1.1-0.8-2-0.8
		c-1.1,0-2,0.3-2.6,1c-0.7,0.7-1,1.6-1,2.8v8.2H181.8z"/>
	<path class="st2" d="M205.3,45.9c-1.7,0-3-0.4-3.9-1.3c-0.9-0.9-1.3-2.2-1.3-4v-6.7h-2.8v-2.7h2.8v-3.7l3.6-0.9v4.6h3.9v2.7h-3.9
		v6.5c0,1,0.2,1.7,0.6,2.1c0.4,0.4,0.9,0.6,1.6,0.6c0.4,0,0.7,0,0.9-0.1c0.3-0.1,0.5-0.1,0.8-0.2v2.8c-0.3,0.1-0.7,0.2-1.1,0.3
		C206.1,45.9,205.7,45.9,205.3,45.9z"/>
	<path class="st2" d="M215.6,45.9c-1.3,0-2.4-0.3-3.3-0.9s-1.7-1.5-2.2-2.6s-0.8-2.5-0.8-4c0-1.6,0.3-2.9,0.8-4
		c0.5-1.1,1.3-2,2.2-2.6c1-0.6,2.1-0.9,3.3-0.9c1.2,0,2.3,0.3,3.2,0.9c0.9,0.6,1.5,1.4,1.9,2.4h-0.3l0.3-3h3.4
		c-0.1,0.6-0.1,1.2-0.2,1.8c0,0.6-0.1,1.2-0.1,1.8v10.9h-3.6l0-3h0.3c-0.3,1-0.9,1.8-1.9,2.4C217.9,45.6,216.8,45.9,215.6,45.9z
		 M216.6,43.2c1.1,0,2-0.4,2.7-1.2c0.7-0.8,1-2,1-3.6c0-1.6-0.3-2.8-1-3.6c-0.7-0.8-1.6-1.2-2.7-1.2c-1.1,0-2,0.4-2.7,1.2
		c-0.7,0.8-1,2-1,3.6c0,1.6,0.3,2.8,1,3.6C214.6,42.8,215.5,43.2,216.6,43.2z"/>
	<path class="st2" d="M234,45.9c-1.7,0-3-0.4-3.9-1.3c-0.9-0.9-1.3-2.2-1.3-4v-6.7H226v-2.7h2.8v-3.7l3.6-0.9v4.6h3.9v2.7h-3.9v6.5
		c0,1,0.2,1.7,0.6,2.1c0.4,0.4,0.9,0.6,1.6,0.6c0.4,0,0.7,0,0.9-0.1c0.3-0.1,0.5-0.1,0.8-0.2v2.8c-0.3,0.1-0.7,0.2-1.1,0.3
		C234.8,45.9,234.4,45.9,234,45.9z"/>
	<path class="st2" d="M245.1,45.9c-1.5,0-2.8-0.3-3.9-0.9c-1.1-0.6-1.9-1.5-2.5-2.6c-0.6-1.1-0.9-2.5-0.9-4c0-1.5,0.3-2.9,0.9-4
		c0.6-1.1,1.5-2,2.5-2.6c1.1-0.6,2.4-0.9,3.9-0.9c1.5,0,2.8,0.3,3.9,0.9c1.1,0.6,2,1.5,2.6,2.6c0.6,1.1,0.9,2.5,0.9,4
		c0,1.6-0.3,2.9-0.9,4c-0.6,1.1-1.5,2-2.6,2.6C247.9,45.6,246.6,45.9,245.1,45.9z M245.1,43.2c1.1,0,2-0.4,2.7-1.2
		c0.7-0.8,1-2,1-3.6c0-1.6-0.3-2.8-1-3.6s-1.6-1.2-2.7-1.2c-1.1,0-2,0.4-2.7,1.2c-0.7,0.8-1,2-1,3.6c0,1.6,0.3,2.8,1,3.6
		C243.1,42.8,244,43.2,245.1,43.2z"/>
</g>
</svg>
