<?xml version="1.0" encoding="utf-8"?>
<!-- Generator: Adobe Illustrator 23.0.0, SVG Export Plug-In . SVG Version: 6.00 Build 0)  -->
<svg version="1.1" id="Camada_2" xmlns="http://www.w3.org/2000/svg" xmlns:xlink="http://www.w3.org/1999/xlink" x="0px" y="0px"
	 viewBox="0 0 279 73" style="enable-background:new 0 0 279 73;" xml:space="preserve">
<style type="text/css">
	.st0{fill:#5DE2A6;}
	.st1{fill-rule:evenodd;clip-rule:evenodd;fill:#166B56;}
	.st2{fill:#042B09;}
</style>
<g>
	<path class="st0" d="M0,57V16C0,7.2,7.2,0,16,0h247c8.8,0,16,7.2,16,16v41c0,8.8-7.2,16-16,16H16C7.2,73,0,65.8,0,57z"/>
	<path class="st1" d="M125.7,0c1.3,2.9,1.3,6.5-0.4,10.2L97.3,71c-0.3,0.7-0.7,1.4-1.1,2H16C7.2,73,0,65.8,0,57V16C0,7.2,7.2,0,16,0
		H125.7z"/>
</g>
<path class="st0" d="M29.3,65.6h14.4v-4.7c0,0,1.1-2,2.8,0s4.2,2.8,7.1-0.2s0.9-6.1-0.7-7.1c-1.6-1-0.1-4.3,4.7-2.6S57,57,64,57
	s2.6-7,5.7-8.1l1.9-0.9c0,0,0.9-1.4,3.3,0.9c2.3,2.3,6.4-0.8,6.4-0.8s2.7-4.4-1.2-6.7c-3.9-2.4,1.6-8.8,3.9-6.3s5.1-4.7,2.5-6.8
	c0,0-0.8-0.6-2.9-1.2s-1.5-2.9-1.5-2.9s-0.1-2,0.7-2c0.7,0,3.2,0.5,3-3.1s-2.3-3.6-4.3-2.7c0,0-2.6-3.2-2.4-4.2S80.4,10,77,8.3
	s-4.2-2.1-5.3,0c0,0-5,0.2-5.5,0.3c-0.5,0,0.2-1.9-4.7-1.5s-13.1,3.4-11.9,15.4s13.8,15,21.4,6.7c0,0-13.2,4-14.6-4.4
	c-1.4-8.5,1.8-12,9.8-11.8c7.9,0.1,11.2,6,10,18.2S60.6,42.8,57.8,41.4C55,40,38.1,32.4,31.3,51C31.3,51,29.5,56,29.3,65.6z"/>
<g>
	<path class="st2" d="M146.5,45.7l9.2-20.2h3.1l9.3,20.2h-3.8l-2.5-5.7l1.5,1h-12.1l1.5-1l-2.5,5.7H146.5z M157.2,29.4l-4,9.6
		l-0.7-0.9h9.6l-0.6,0.9l-4.1-9.6H157.2z"/>
	<path class="st2" d="M178.3,45.9c-1.2,0-2.3-0.3-3.2-0.9c-0.9-0.6-1.5-1.4-1.8-2.5h0.3v3.1H170V24.5h3.6v9.6h-0.3
		c0.3-1,0.9-1.8,1.9-2.4c0.9-0.6,2-0.9,3.2-0.9c1.3,0,2.4,0.3,3.4,0.9s1.7,1.5,2.2,2.6c0.5,1.1,0.8,2.5,0.8,4c0,1.6-0.3,2.9-0.8,4
		s-1.3,2-2.3,2.6C180.7,45.6,179.5,45.9,178.3,45.9z M177.3,43.2c1.1,0,2-0.4,2.7-1.2s1-2,1-3.6s-0.3-2.8-1-3.6s-1.6-1.2-2.7-1.2
		s-2,0.4-2.7,1.2s-1,2-1,3.6s0.3,2.8,1,3.6C175.2,42.8,176.1,43.2,177.3,43.2z"/>
	<path class="st2" d="M187.6,28.4v-3.5h4v3.5H187.6z M187.8,45.7V31.2h3.6v14.5H187.8z"/>
	<path class="st2" d="M200.4,45.9c-1.2,0-2.4-0.1-3.4-0.4c-1-0.3-1.9-0.7-2.6-1.2l1-2.4c0.7,0.5,1.5,0.9,2.4,1.1
		c0.9,0.3,1.8,0.4,2.7,0.4c1,0,1.7-0.2,2.1-0.5c0.5-0.3,0.7-0.8,0.7-1.3c0-0.4-0.1-0.8-0.4-1c-0.3-0.3-0.8-0.5-1.4-0.6l-2.9-0.5
		c-1.2-0.3-2.2-0.7-2.8-1.4s-1-1.5-1-2.6c0-0.9,0.2-1.7,0.7-2.4s1.2-1.2,2.1-1.6c0.9-0.4,2-0.6,3.2-0.6c1.1,0,2.1,0.1,3,0.4
		s1.7,0.7,2.4,1.3l-1,2.3c-0.6-0.5-1.3-0.9-2-1.1c-0.8-0.3-1.5-0.4-2.2-0.4c-1,0-1.7,0.2-2.2,0.5s-0.7,0.8-0.7,1.4
		c0,0.4,0.1,0.8,0.4,1c0.3,0.3,0.7,0.5,1.3,0.6l2.9,0.5c1.3,0.2,2.3,0.7,2.9,1.3c0.7,0.6,1,1.5,1,2.5s-0.3,1.8-0.8,2.5
		s-1.2,1.2-2.2,1.6S201.7,45.9,200.4,45.9z"/>
	<path class="st2" d="M209.7,45.7V34.8c0-0.6,0-1.2-0.1-1.8c0-0.6-0.1-1.2-0.2-1.8h3.5l0.3,2.9h-0.3c0.4-1,1-1.8,1.9-2.3
		c0.8-0.6,1.8-0.8,3-0.8s2.1,0.3,2.9,0.8c0.8,0.5,1.3,1.4,1.6,2.5h-0.5c0.4-1,1.1-1.9,2-2.5c0.9-0.6,2-0.9,3.2-0.9
		c1.6,0,2.8,0.5,3.6,1.4c0.8,1,1.2,2.4,1.2,4.5v8.9h-3.6V37c0-1.1-0.2-2-0.6-2.5c-0.4-0.5-1-0.8-1.8-0.8c-1,0-1.8,0.3-2.4,1
		c-0.6,0.7-0.9,1.6-0.9,2.8v8.1h-3.6v-8.7c0-1.1-0.2-2-0.6-2.5c-0.4-0.5-1-0.8-1.8-0.8c-1,0-1.8,0.3-2.3,1c-0.6,0.7-0.8,1.6-0.8,2.8
		v8.1h-3.7V45.7z"/>
	<path class="st2" d="M242,45.9c-1.5,0-2.8-0.3-3.9-0.9c-1.1-0.6-1.9-1.5-2.5-2.6s-0.9-2.5-0.9-4s0.3-2.9,0.9-4
		c0.6-1.1,1.5-2,2.5-2.6c1.1-0.6,2.4-0.9,3.9-0.9s2.8,0.3,3.9,0.9c1.1,0.6,2,1.5,2.6,2.6s0.9,2.5,0.9,4c0,1.6-0.3,2.9-0.9,4
		c-0.6,1.1-1.5,2-2.6,2.6C244.8,45.6,243.5,45.9,242,45.9z M242,43.2c1.1,0,2-0.4,2.7-1.2s1-2,1-3.6s-0.3-2.8-1-3.6
		s-1.6-1.2-2.7-1.2c-1.1,0-2,0.4-2.7,1.2s-1,2-1,3.6s0.3,2.8,1,3.6S240.9,43.2,242,43.2z"/>
</g>
</svg>
