<?xml version="1.0" encoding="utf-8"?>
<!-- Generator: Adobe Illustrator 23.0.0, SVG Export Plug-In . SVG Version: 6.00 Build 0)  -->
<svg version="1.1" id="Camada_1" xmlns="http://www.w3.org/2000/svg" xmlns:xlink="http://www.w3.org/1999/xlink" x="0px" y="0px"
	 viewBox="0 0 287 81" style="enable-background:new 0 0 287 81;" xml:space="preserve">
<style type="text/css">
	.st0{fill:#5DE2A6;}
	.st1{fill-rule:evenodd;clip-rule:evenodd;fill:#166B56;}
</style>
<g>
	<path class="st0" d="M4,57V16C4,7.2,11.2,0,20,0h247c8.8,0,16,7.2,16,16v41c0,8.8-7.2,16-16,16H20C11.2,73,4,65.8,4,57z"/>
	<path class="st1" d="M129.7,0c1.3,2.9,1.3,6.5-0.4,10.2l-28,60.8c-0.3,0.7-0.7,1.4-1.1,2H20c-8.8,0-16-7.2-16-16V16
		C4,7.2,11.2,0,20,0H129.7z"/>
</g>
<path class="st0" d="M84.3,15.3c0-2.9-2.4-5.3-5.3-5.3c-2.9,0-5.3,2.4-5.3,5.3c0,2.4,1.6,4.4,3.7,5l-9.2,8.9c-0.2,0.2-0.5,0.2-0.8,0
	l-9.1-8.9c2.3-0.6,3.9-2.6,3.9-5.1c0-2.9-2.4-5.3-5.3-5.3c-2.9,0-5.3,2.4-5.3,5.3c0,2.4,1.6,4.5,3.9,5.1l-9.1,8.9
	c-0.2,0.2-0.5,0.2-0.8,0l-9-8.9c2.3-0.6,4-2.6,4-5.1c0-2.9-2.4-5.3-5.3-5.3c-2.9,0-5.3,2.4-5.3,5.3c0,1.8,0.9,3.5,2.4,4.4v38.4h48.7
	V20C83.1,19.1,84.3,17.4,84.3,15.3z"/>
</svg>
