<?xml version="1.0" encoding="utf-8"?>
<!-- Generator: Adobe Illustrator 23.0.0, SVG Export Plug-In . SVG Version: 6.00 Build 0)  -->
<svg version="1.1" id="Camada_1" xmlns="http://www.w3.org/2000/svg" xmlns:xlink="http://www.w3.org/1999/xlink" x="0px" y="0px"
	 viewBox="0 0 282 308" style="enable-background:new 0 0 282 308;" xml:space="preserve">
<style type="text/css">
	.st0{fill:#5DE2A6;}
	.st1{fill-rule:evenodd;clip-rule:evenodd;fill:#166B56;}
	.st2{fill:#FFFFFF;}
</style>
<g>
	<path class="st0" d="M20,0h242c8.8,0,16,7.2,16,16v268c0,8.8-7.2,16-16,16H20c-8.8,0-16-7.2-16-16V16C4,7.2,11.2,0,20,0z"/>
	<path class="st1" d="M278,250.9l-274-65V16C4,7.2,11.2,0,20,0h242c8.8,0,16,7.2,16,16V250.9z"/>
</g>
<g>
	<polygon class="st2" points="150.3,45.5 162.7,122.6 207.4,103.4 	"/>
	<polygon class="st2" points="89,110.4 156.8,128.3 144.8,166.5 	"/>
	<polygon class="st2" points="162.7,129.6 203.2,112.2 151.6,164.7 	"/>
	<g>
		<path class="st2" d="M132.9,75.5c-3.7-0.8-6.5,1.3-7.5,4.2c-1.1,3.3,0.7,5.6,3.9,7.4c3.1-0.3,5.9-1.8,7.1-4.8
			C137.4,79.6,136.9,76.4,132.9,75.5z"/>
		<path class="st2" d="M127,89.9c-4,0.2-6.7,2.1-7.7,4.9c-1.1,2.9,0.3,6.1,4,7c3.6,0.9,6.8-0.7,8-3.7C132.8,94.5,130.8,92,127,89.9z
			"/>
		<path class="st2" d="M143.8,45.5l-57.6,57.4l70.6,19.7L143.8,45.5z M140.8,82.8c-1.1,2.8-3.6,5.4-8.2,6.4l-0.1,0.1
			c3.3,2.5,4.7,5.8,3.2,9.4c-2,5.1-7.8,7.3-13.4,5.8c-6.1-1.5-8.6-6-7.3-10.2c1.2-3.8,4.4-6,8.7-6.7v-0.2c-2.9-2.5-3.5-5.6-2.6-8.4
			c1.7-5.3,7.3-8.1,13.2-6.9C140.9,73.6,142.5,78.6,140.8,82.8z"/>
	</g>
</g>
</svg>
